<svg width="16" height="16" viewBox="0 0 16 16" fill="none" xmlns="http://www.w3.org/2000/svg">
<g clip-path="url(#clip0_95_35)">
<path d="M1.77778 2.22266C1.30628 2.22266 0.854097 2.40996 0.520699 2.74336C0.187301 3.07675 0 3.52894 0 4.00043L0 12.0004C0 12.4719 0.187301 12.9241 0.520699 13.2575C0.854097 13.5909 1.30628 13.7782 1.77778 13.7782H5.33333V2.22266H1.77778Z" fill="#009A49"/>
<path d="M5.33325 2.22266H10.6666V13.7782H5.33325V2.22266Z" fill="#EEEEEE"/>
<path d="M14.2223 2.22266H10.6667V13.7782H14.2223C14.6938 13.7782 15.146 13.5909 15.4794 13.2575C15.8128 12.9241 16.0001 12.4719 16.0001 12.0004V4.00043C16.0001 3.52894 15.8128 3.07675 15.4794 2.74336C15.146 2.40996 14.6938 2.22266 14.2223 2.22266Z" fill="#009A49"/>
</g>
<defs>
<clipPath id="clip0_95_35">
<rect width="16" height="16" fill="white"/>
</clipPath>
</defs>
</svg>
