<svg width="48" height="48" viewBox="0 0 48 48" fill="none" xmlns="http://www.w3.org/2000/svg">
<path d="M6 42C5.73333 42 5.47533 41.9413 5.226 41.824C4.97667 41.7067 4.768 41.5653 4.6 41.4C4.2 41.0333 4 40.5753 4 40.026C4 39.4767 4.18333 39.0013 4.55 38.6C5.18333 37.9333 5.942 37.5333 6.826 37.4C7.71 37.2667 8.60133 37.2833 9.5 37.45C9.76667 37.5167 10.0167 37.5833 10.25 37.65C10.4833 37.7167 10.6833 37.6667 10.85 37.5C11.05 37.3 11.1253 37.05 11.076 36.75C11.0267 36.45 10.968 36.1667 10.9 35.9C10.7667 35 10.75 34.108 10.85 33.224C10.95 32.34 11.3167 31.5653 11.95 30.9C12.5833 30.2347 13.3413 29.8347 14.224 29.7C15.1067 29.5653 15.9987 29.582 16.9 29.75C17.1667 29.8167 17.4253 29.8833 17.676 29.95C17.9267 30.0167 18.1347 29.9667 18.3 29.8C18.5 29.6 18.5667 29.35 18.5 29.05C18.4333 28.75 18.3667 28.4667 18.3 28.2C18.1667 27.3 18.15 26.4087 18.25 25.526C18.35 24.6433 18.7167 23.868 19.35 23.2C19.9833 22.532 20.7413 22.132 21.624 22C22.5067 21.868 23.3987 21.8847 24.3 22.05C24.5667 22.1167 24.8247 22.1833 25.074 22.25C25.3233 22.3167 25.532 22.2667 25.7 22.1C25.9 21.9 25.9667 21.65 25.9 21.35C25.8333 21.05 25.7667 20.7667 25.7 20.5C25.5667 19.6 25.558 18.7087 25.674 17.826C25.79 16.9433 26.1653 16.168 26.8 15.5C27.4347 14.832 28.1933 14.432 29.076 14.3C29.9587 14.168 30.85 14.1847 31.75 14.35C32.0167 14.4167 32.2753 14.4833 32.526 14.55C32.7767 14.6167 32.9847 14.5667 33.15 14.4C33.35 14.2 33.4167 13.95 33.35 13.65C33.2833 13.35 33.2167 13.0667 33.15 12.8C33.0167 11.9 33.0087 11.008 33.126 10.124C33.2433 9.24 33.618 8.46533 34.25 7.8C34.882 7.13467 35.6407 6.73467 36.526 6.6C37.4113 6.46533 38.3027 6.482 39.2 6.65C39.4667 6.71667 39.7247 6.77533 39.974 6.826C40.2233 6.87667 40.432 6.818 40.6 6.65C40.9667 6.25 41.4253 6.05 41.976 6.05C42.5267 6.05 43.0013 6.23333 43.4 6.6C43.7987 6.96667 43.9987 7.42533 44 7.976C44.0013 8.52667 43.818 9.00133 43.45 9.4C42.8167 10.0667 42.0587 10.4753 41.176 10.626C40.2933 10.7767 39.4013 10.768 38.5 10.6C38.2333 10.5333 37.9753 10.4667 37.726 10.4C37.4767 10.3333 37.268 10.3833 37.1 10.55C36.9 10.75 36.8333 11 36.9 11.3C36.9667 11.6 37.0333 11.8833 37.1 12.15C37.2333 13.05 37.242 13.942 37.126 14.826C37.01 15.71 36.6347 16.4847 36 17.15C35.3653 17.8153 34.6073 18.2153 33.726 18.35C32.8447 18.4847 31.9527 18.468 31.05 18.3C30.7833 18.2333 30.5333 18.1667 30.3 18.1C30.0667 18.0333 29.8667 18.0833 29.7 18.25C29.5 18.45 29.4253 18.7 29.476 19C29.5267 19.3 29.5847 19.5833 29.65 19.85C29.7833 20.75 29.8 21.642 29.7 22.526C29.6 23.41 29.2333 24.1847 28.6 24.85C27.9667 25.4833 27.2087 25.8753 26.326 26.026C25.4433 26.1767 24.5513 26.168 23.65 26C23.3833 25.9333 23.1333 25.8747 22.9 25.824C22.6667 25.7733 22.4667 25.832 22.3 26C22.1 26.2 22.0253 26.442 22.076 26.726C22.1267 27.01 22.1847 27.2847 22.25 27.55C22.3833 28.45 22.4 29.342 22.3 30.226C22.2 31.11 21.8333 31.8847 21.2 32.55C20.5667 33.2153 19.8 33.6153 18.9 33.75C18 33.8847 17.1 33.868 16.2 33.7C15.9333 33.6333 15.6833 33.5753 15.45 33.526C15.2167 33.4767 15.0167 33.5347 14.85 33.7C14.65 33.9 14.5833 34.142 14.65 34.426C14.7167 34.71 14.7833 34.9847 14.85 35.25C14.9833 36.15 14.992 37.042 14.876 37.926C14.76 38.81 14.3847 39.5847 13.75 40.25C13.1153 40.9153 12.3573 41.3153 11.476 41.45C10.5947 41.5847 9.70267 41.568 8.8 41.4C8.53333 41.3333 8.28333 41.2753 8.05 41.226C7.81667 41.1767 7.61667 41.2347 7.45 41.4C7.25 41.6 7.02467 41.75 6.774 41.85C6.52333 41.95 6.26533 42 6 42ZM12 22C9.23333 22 6.87533 21.0253 4.926 19.076C2.97667 17.1267 2.00133 14.768 2 12C2 9.2 2.97533 6.83333 4.926 4.9C6.87667 2.96667 9.23467 2 12 2C14.8 2 17.1667 2.96667 19.1 4.9C21.0333 6.83333 22 9.2 22 12C22 14.7667 21.0333 17.1253 19.1 19.076C17.1667 21.0267 14.8 22.0013 12 22ZM32 46C30.9 46 29.9587 45.6087 29.176 44.826C28.3933 44.0433 28.0013 43.1013 28 42V32C28 30.9 28.392 29.9587 29.176 29.176C29.96 28.3933 30.9013 28.0013 32 28H42C43.1 28 44.042 28.392 44.826 29.176C45.61 29.96 46.0013 30.9013 46 32V42C46 43.1 45.6087 44.042 44.826 44.826C44.0433 45.61 43.1013 46.0013 42 46H32Z" fill="black"/>
</svg>
