<svg width="48" height="48" viewBox="0 0 48 48" fill="none" xmlns="http://www.w3.org/2000/svg">
<path d="M42.8199 17.2798V17.1798C41.4107 13.3322 38.8537 10.0103 35.4949 7.66349C32.136 5.31665 28.1374 4.05811 24.0399 4.05811C19.9424 4.05811 15.9438 5.31665 12.5849 7.66349C9.22607 10.0103 6.6691 13.3322 5.2599 17.1798C5.2599 17.1798 5.2599 17.1798 5.2599 17.2798C3.68615 21.6216 3.68615 26.378 5.2599 30.7198V30.8198C6.6691 34.6673 9.22607 37.9892 12.5849 40.336C15.9438 42.6829 19.9424 43.9414 24.0399 43.9414C28.1374 43.9414 32.136 42.6829 35.4949 40.336C38.8537 37.9892 41.4107 34.6673 42.8199 30.8198C42.8199 30.8198 42.8199 30.8198 42.8199 30.7198C44.3937 26.378 44.3937 21.6216 42.8199 17.2798ZM8.5199 27.9998C7.82452 25.3784 7.82452 22.6211 8.5199 19.9998H12.2399C11.9194 22.6568 11.9194 25.3427 12.2399 27.9998H8.5199ZM10.1599 31.9998H12.9599C13.4268 33.7843 14.0979 35.509 14.9599 37.1398C12.9985 35.8036 11.3589 34.0479 10.1599 31.9998ZM12.9599 15.9998H10.1599C11.3416 13.9579 12.9603 12.2027 14.8999 10.8598C14.0586 12.4932 13.4077 14.2178 12.9599 15.9998ZM21.9999 39.3998C19.5434 37.5971 17.8182 34.9702 17.1399 31.9998H21.9999V39.3998ZM21.9999 27.9998H16.2799C15.9077 25.3461 15.9077 22.6534 16.2799 19.9998H21.9999V27.9998ZM21.9999 15.9998H17.1399C17.8182 13.0293 19.5434 10.4024 21.9999 8.59976V15.9998ZM37.8399 15.9998H35.0399C34.573 14.2153 33.9019 12.4905 33.0399 10.8598C35.0013 12.1959 36.6409 13.9516 37.8399 15.9998ZM25.9999 8.59976C28.4564 10.4024 30.1816 13.0293 30.8599 15.9998H25.9999V8.59976ZM25.9999 39.3998V31.9998H30.8599C30.1816 34.9702 28.4564 37.5971 25.9999 39.3998ZM31.7199 27.9998H25.9999V19.9998H31.7199C32.0921 22.6534 32.0921 25.3461 31.7199 27.9998ZM33.0999 37.1398C33.9619 35.509 34.633 33.7843 35.0999 31.9998H37.8999C36.7009 34.0479 35.0613 35.8036 33.0999 37.1398ZM39.4799 27.9998H35.7599C35.9234 26.6728 36.0035 25.3368 35.9999 23.9998C36.0035 22.6627 35.9234 21.3268 35.7599 19.9998H39.4799C40.1753 22.6211 40.1753 25.3784 39.4799 27.9998Z" fill="black"/>
</svg>
