<svg width="48" height="48" viewBox="0 0 48 48" fill="none" xmlns="http://www.w3.org/2000/svg">
<path d="M13.5 6C11.5109 6 9.60322 6.79018 8.1967 8.1967C6.79018 9.60322 6 11.5109 6 13.5V34.5C6 36.4891 6.79018 38.3968 8.1967 39.8033C9.60322 41.2098 11.5109 42 13.5 42H34.5C36.4891 42 38.3968 41.2098 39.8033 39.8033C41.2098 38.3968 42 36.4891 42 34.5V13.5C42 11.5109 41.2098 9.60322 39.8033 8.1967C38.3968 6.79018 36.4891 6 34.5 6H13.5ZM12 34.5C12 34.1022 12.158 33.7206 12.4393 33.4393C12.7206 33.158 13.1022 33 13.5 33H22.5C22.8978 33 23.2794 33.158 23.5607 33.4393C23.842 33.7206 24 34.1022 24 34.5C24 34.8978 23.842 35.2794 23.5607 35.5607C23.2794 35.842 22.8978 36 22.5 36H13.5C13.1022 36 12.7206 35.842 12.4393 35.5607C12.158 35.2794 12 34.8978 12 34.5ZM13.5 27H22.5C22.8978 27 23.2794 27.158 23.5607 27.4393C23.842 27.7206 24 28.1022 24 28.5C24 28.8978 23.842 29.2794 23.5607 29.5607C23.2794 29.842 22.8978 30 22.5 30H13.5C13.1022 30 12.7206 29.842 12.4393 29.5607C12.158 29.2794 12 28.8978 12 28.5C12 28.1022 12.158 27.7206 12.4393 27.4393C12.7206 27.158 13.1022 27 13.5 27ZM12 15C12 14.2044 12.3161 13.4413 12.8787 12.8787C13.4413 12.3161 14.2044 12 15 12H33C33.7956 12 34.5587 12.3161 35.1213 12.8787C35.6839 13.4413 36 14.2044 36 15V21C36 21.7956 35.6839 22.5587 35.1213 23.1213C34.5587 23.6839 33.7956 24 33 24H15C14.2044 24 13.4413 23.6839 12.8787 23.1213C12.3161 22.5587 12 21.7956 12 21V15ZM33 15H15V21H33V15ZM30 27H33C33.7956 27 34.5587 27.3161 35.1213 27.8787C35.6839 28.4413 36 29.2044 36 30V33C36 33.7956 35.6839 34.5587 35.1213 35.1213C34.5587 35.6839 33.7956 36 33 36H30C29.2044 36 28.4413 35.6839 27.8787 35.1213C27.3161 34.5587 27 33.7956 27 33V30C27 29.2044 27.3161 28.4413 27.8787 27.8787C28.4413 27.3161 29.2044 27 30 27ZM30 30H33V33H30V30Z" fill="black"/>
</svg>
