<svg width="48" height="48" viewBox="0 0 48 48" fill="none" xmlns="http://www.w3.org/2000/svg">
<path d="M7 14C7 11.3478 8.05357 8.8043 9.92893 6.92893C11.8043 5.05357 14.3478 4 17 4C19.6522 4 22.1957 5.05357 24.0711 6.92893C25.9464 8.8043 27 11.3478 27 14C27 16.6522 25.9464 19.1957 24.0711 21.0711C22.1957 22.9464 19.6522 24 17 24C14.3478 24 11.8043 22.9464 9.92893 21.0711C8.05357 19.1957 7 16.6522 7 14ZM10 28C7.34784 28 4.8043 29.0536 2.92893 30.9289C1.05357 32.8043 0 35.3478 0 38L0 42H34V38C34 35.3478 32.9464 32.8043 31.0711 30.9289C29.1957 29.0536 26.6522 28 24 28H10ZM48 42H38V38C38 34.082 36.392 30.54 33.8 28H38C39.3132 28 40.6136 28.2587 41.8268 28.7612C43.0401 29.2638 44.1425 30.0003 45.0711 30.9289C45.9997 31.8575 46.7362 32.9599 47.2388 34.1732C47.7413 35.3864 48 36.6868 48 38V42ZM31 24C29.7792 24.0005 28.5685 23.7775 27.428 23.342C29.7332 20.777 31.0059 17.4486 31 14C31.0053 10.5511 29.732 7.22266 27.426 4.658C28.7961 4.13479 30.2645 3.91935 31.7271 4.02695C33.1898 4.13455 34.6108 4.56254 35.8896 5.2806C37.1684 5.99867 38.2736 6.98922 39.1268 8.18205C39.9801 9.37488 40.5605 10.7408 40.827 12.183C41.0935 13.6251 41.0395 15.1083 40.6689 16.5273C40.2982 17.9463 39.62 19.2663 38.6823 20.394C37.7445 21.5216 36.5702 22.4292 35.2426 23.0523C33.915 23.6755 32.4666 23.999 31 24Z" fill="black"/>
</svg>
