<svg width="48" height="48" viewBox="0 0 48 48" fill="none" xmlns="http://www.w3.org/2000/svg">
<path d="M33.4979 4H42.6059L42.8059 4.028L43.0039 4.084L43.1239 4.136C43.2839 4.20533 43.4299 4.30533 43.5619 4.436L43.6419 4.524L43.7299 4.638L43.8379 4.818L43.9159 4.998L43.9539 5.126L43.9819 5.254L43.9999 5.444V14.508C43.9998 14.888 43.8554 15.2539 43.596 15.5316C43.3365 15.8093 42.9813 15.9781 42.6022 16.0041C42.223 16.03 41.8481 15.911 41.5533 15.6711C41.2585 15.4313 41.0657 15.0885 41.0139 14.712L40.9999 14.508V9.118L28.1199 21.998C27.8659 22.252 27.5292 22.4065 27.171 22.4333C26.8128 22.4601 26.4569 22.3574 26.1679 22.144L25.9999 22L19.9399 16.18L8.55992 27.558C8.29227 27.8264 7.93294 27.9835 7.55417 27.9977C7.17541 28.012 6.80529 27.8823 6.51824 27.6348C6.23119 27.3872 6.04849 27.0402 6.00687 26.6635C5.96526 26.2867 6.06782 25.9082 6.29392 25.604L6.43992 25.436L18.8799 12.996C19.1341 12.7423 19.471 12.5882 19.8292 12.5618C20.1874 12.5353 20.5432 12.6383 20.8319 12.852L20.9999 12.996L27.0599 18.816L38.8759 7H33.4959C33.1338 6.9995 32.7841 6.86801 32.5113 6.62981C32.2386 6.3916 32.0612 6.06277 32.0119 5.704L31.9979 5.5C31.9979 5.13752 32.1292 4.78732 32.3675 4.51414C32.6057 4.24096 32.9348 4.0633 33.2939 4.014L33.4979 4ZM7.49992 34C7.89775 34 8.27928 34.158 8.56058 34.4393C8.84189 34.7206 8.99992 35.1022 8.99992 35.5V42.5C8.99992 42.8978 8.84189 43.2794 8.56058 43.5607C8.27928 43.842 7.89775 44 7.49992 44C7.1021 44 6.72057 43.842 6.43926 43.5607C6.15796 43.2794 5.99992 42.8978 5.99992 42.5V35.5C5.99992 35.1022 6.15796 34.7206 6.43926 34.4393C6.72057 34.158 7.1021 34 7.49992 34ZM18.9999 27.5C18.9999 27.1022 18.8419 26.7206 18.5606 26.4393C18.2793 26.158 17.8977 26 17.4999 26C17.1021 26 16.7206 26.158 16.4393 26.4393C16.158 26.7206 15.9999 27.1022 15.9999 27.5V42.5C15.9999 42.8978 16.158 43.2794 16.4393 43.5607C16.7206 43.842 17.1021 44 17.4999 44C17.8977 44 18.2793 43.842 18.5606 43.5607C18.8419 43.2794 18.9999 42.8978 18.9999 42.5V27.5ZM27.4999 30C27.8977 30 28.2793 30.158 28.5606 30.4393C28.8419 30.7206 28.9999 31.1022 28.9999 31.5V42.5C28.9999 42.8978 28.8419 43.2794 28.5606 43.5607C28.2793 43.842 27.8977 44 27.4999 44C27.1021 44 26.7206 43.842 26.4393 43.5607C26.158 43.2794 25.9999 42.8978 25.9999 42.5V31.5C25.9999 31.1022 26.158 30.7206 26.4393 30.4393C26.7206 30.158 27.1021 30 27.4999 30ZM38.9999 21.5C38.9999 21.1022 38.8419 20.7206 38.5606 20.4393C38.2793 20.158 37.8977 20 37.4999 20C37.1021 20 36.7206 20.158 36.4393 20.4393C36.158 20.7206 35.9999 21.1022 35.9999 21.5V42.5C35.9999 42.8978 36.158 43.2794 36.4393 43.5607C36.7206 43.842 37.1021 44 37.4999 44C37.8977 44 38.2793 43.842 38.5606 43.5607C38.8419 43.2794 38.9999 42.8978 38.9999 42.5V21.5Z" fill="black"/>
</svg>
