<svg width="48" height="48" viewBox="0 0 48 48" fill="none" xmlns="http://www.w3.org/2000/svg">
<path d="M5.46009 42.0001H42.5201C44.0601 42.0001 45.0201 40.3401 44.2601 39.0001L25.7201 7.0001C25.5459 6.69498 25.2942 6.44135 24.9903 6.26494C24.6865 6.08852 24.3414 5.99561 23.9901 5.99561C23.6388 5.99561 23.2937 6.08852 22.9899 6.26494C22.686 6.44135 22.4343 6.69498 22.2601 7.0001L3.72009 39.0001C2.96009 40.3401 3.92009 42.0001 5.46009 42.0001ZM26.0001 36.0001H22.0001V32.0001H26.0001V36.0001ZM24.0001 28.0001C22.9001 28.0001 22.0001 27.1001 22.0001 26.0001V22.0001C22.0001 20.9001 22.9001 20.0001 24.0001 20.0001C25.1001 20.0001 26.0001 20.9001 26.0001 22.0001V26.0001C26.0001 27.1001 25.1001 28.0001 24.0001 28.0001Z" fill="black"/>
</svg>
