<svg width="48" height="48" viewBox="0 0 48 48" fill="none" xmlns="http://www.w3.org/2000/svg">
<path d="M24 6C14.059 6 6 14.059 6 24C6 33.94 14.059 42 24 42C33.941 42 42 33.94 42 24C42 22.201 41.736 20.465 41.245 18.826L39.329 19.401C39.766 20.858 40 22.401 40 24C40 32.836 32.837 40 24 40C15.163 40 8 32.836 8 24C8 15.164 15.163 8 24 8V6Z" fill="black"/>
<path d="M18.164 15.317C18.0314 15.0873 17.9955 14.8144 18.0641 14.5582C18.1328 14.302 18.3004 14.0836 18.53 13.951L21.199 12.411C21.3598 12.3184 21.5431 12.2724 21.7286 12.278C21.914 12.2837 22.0942 12.3408 22.249 12.443C22.4038 12.5453 22.5272 12.6885 22.6052 12.8568C22.6833 13.0251 22.713 13.2118 22.691 13.396L22.24 17.146L23.51 16.413C23.6238 16.3463 23.7496 16.3028 23.8803 16.2849C24.011 16.267 24.1439 16.2752 24.2714 16.3089C24.3989 16.3426 24.5184 16.4012 24.6232 16.4813C24.728 16.5614 24.8159 16.6615 24.8818 16.7757C24.9477 16.8899 24.9904 17.016 25.0074 17.1468C25.0244 17.2776 25.0154 17.4104 24.9808 17.5377C24.9463 17.665 24.8869 17.7841 24.8061 17.8884C24.7253 17.9926 24.6247 18.0798 24.51 18.145L21.507 19.879C21.3462 19.9717 21.1627 20.0177 20.9772 20.012C20.7917 20.0063 20.6114 19.9491 20.4565 19.8468C20.3017 19.7444 20.1783 19.601 20.1004 19.4326C20.0224 19.2641 19.9929 19.0773 20.015 18.893L20.466 15.143L19.53 15.683C19.3004 15.8156 19.0274 15.8515 18.7712 15.7829C18.5151 15.7143 18.2966 15.5467 18.164 15.317ZM26.524 8.07C26.3925 8.09955 26.2683 8.15538 26.159 8.23414C26.0496 8.3129 25.9572 8.41296 25.8875 8.5283C25.8178 8.64365 25.7721 8.7719 25.7532 8.90536C25.7343 9.03881 25.7425 9.17471 25.7775 9.30489C25.8124 9.43507 25.8733 9.55684 25.9565 9.66289C26.0397 9.76894 26.1435 9.85708 26.2616 9.922C26.3797 9.98693 26.5097 10.0273 26.6438 10.0407C26.778 10.0541 26.9134 10.0403 27.042 10L28.974 9.483L26.925 14.588C26.8559 14.7603 26.8362 14.9485 26.868 15.1314C26.8998 15.3144 26.982 15.4848 27.1052 15.6237C27.2284 15.7626 27.3879 15.8644 27.5657 15.9178C27.7435 15.9712 27.9327 15.974 28.112 15.926L32.459 14.761C32.5859 14.727 32.7048 14.6683 32.809 14.5884C32.9132 14.5084 33.0006 14.4087 33.0662 14.2949C33.1319 14.1812 33.1745 14.0556 33.1916 13.9254C33.2087 13.7952 33.2 13.6629 33.166 13.536C33.132 13.4091 33.0734 13.2902 32.9934 13.186C32.9134 13.0819 32.8137 12.9944 32.7 12.9288C32.5862 12.8631 32.4606 12.8205 32.3304 12.8034C32.2002 12.7863 32.0679 12.795 31.941 12.829L29.526 13.476L31.575 8.372C31.6441 8.19966 31.6639 8.01149 31.632 7.82857C31.6002 7.64564 31.5181 7.47519 31.3949 7.3363C31.2717 7.19741 31.1122 7.09556 30.9344 7.04217C30.7566 6.98878 30.5674 6.98595 30.388 7.034L26.524 8.07ZM35.556 7C35.556 6.73478 35.6614 6.48043 35.8489 6.29289C36.0365 6.10536 36.2908 6 36.556 6H41C41.1785 6 41.3538 6.04778 41.5076 6.13838C41.6614 6.22898 41.7881 6.3591 41.8747 6.51523C41.9612 6.67136 42.0044 6.8478 41.9997 7.02625C41.995 7.20469 41.9426 7.37863 41.848 7.53L37.804 14H41C41.2652 14 41.5196 14.1054 41.7071 14.2929C41.8947 14.4804 42 14.7348 42 15C42 15.2652 41.8947 15.5196 41.7071 15.7071C41.5196 15.8946 41.2652 16 41 16H36C35.8215 16 35.6463 15.9522 35.4925 15.8616C35.3387 15.771 35.2119 15.6409 35.1254 15.4848C35.0389 15.3286 34.9957 15.1522 35.0004 14.9738C35.0051 14.7953 35.0574 14.6214 35.152 14.47L39.196 8H36.556C36.2908 8 36.0365 7.89464 35.8489 7.70711C35.6614 7.51957 35.556 7.26522 35.556 7ZM14.404 28.648C13.631 28.403 12.964 27.848 12.888 27.105C12.8806 27.0315 12.8896 26.9572 12.9143 26.8875C12.939 26.8179 12.9789 26.7546 13.031 26.7022C13.0831 26.6497 13.1462 26.6095 13.2157 26.5844C13.2852 26.5593 13.3595 26.55 13.433 26.557C15.363 26.738 17.214 25.809 18.508 23.697C18.5519 23.6254 18.6132 23.5659 18.6862 23.5242C18.7591 23.4825 18.8414 23.4599 18.9254 23.4584C19.0094 23.4569 19.0925 23.4766 19.1669 23.5157C19.2413 23.5548 19.3046 23.612 19.351 23.682C19.753 24.287 19.793 25.239 19.503 26.107C19.3312 26.6191 19.0521 27.0887 18.6845 27.4844C18.3169 27.8801 17.8691 28.193 17.371 28.402C16.259 28.883 15.211 28.905 14.404 28.648ZM31.74 24.003C32.286 23.404 32.586 22.591 32.28 21.909C32.2498 21.8417 32.205 21.7819 32.1488 21.7339C32.0927 21.686 32.0267 21.651 31.9555 21.6316C31.8842 21.6122 31.8096 21.6088 31.7369 21.6217C31.6642 21.6345 31.5953 21.6633 31.535 21.706C29.953 22.829 27.885 22.95 25.71 21.768C25.6362 21.7278 25.5534 21.7069 25.4694 21.7072C25.3853 21.7075 25.3027 21.7289 25.2291 21.7696C25.1556 21.8103 25.0935 21.8688 25.0485 21.9399C25.0036 22.0109 24.9773 22.0921 24.972 22.176C24.927 22.901 25.368 23.745 26.052 24.352C26.457 24.7098 26.9336 24.9771 27.4501 25.1361C27.9665 25.2951 28.511 25.3421 29.047 25.274C30.25 25.134 31.168 24.63 31.739 24.004" fill="black"/>
<path fill-rule="evenodd" clip-rule="evenodd" d="M32.4481 31.8551C30.1971 28.7701 26.8611 27.1401 23.7411 27.9761C20.6211 28.8121 18.5471 31.8921 18.1401 35.6891C18.0251 36.7581 19.0631 37.5121 20.1011 37.2341L31.5211 34.1741C32.5601 33.8951 33.0811 32.7251 32.4481 31.8551ZM24.2581 29.9071C26.1521 29.4001 28.4731 30.2131 30.3481 32.4171L20.2401 35.1261C20.7611 32.2801 22.3651 30.4161 24.2581 29.9081" fill="black"/>
</svg>
