<svg width="48" height="48" viewBox="0 0 48 48" fill="none" xmlns="http://www.w3.org/2000/svg">
<g clip-path="url(#clip0_23_331)">
<path d="M43 18V38M11 18V38M5 18V38M37 18V38M4 42H44M0 47H48M24 22H22C21.4696 22 20.9609 22.2107 20.5858 22.5858C20.2107 22.9609 20 23.4696 20 24V24.75C20 25.1827 20.1404 25.6038 20.4 25.95C20.6596 26.2962 21.0246 26.5488 21.44 26.67L26.56 28.164C26.9754 28.2852 27.3404 28.5378 27.6 28.884C27.8596 29.2302 28 29.6513 28 30.084V32C28 32.5304 27.7893 33.0391 27.4142 33.4142C27.0391 33.7893 26.5304 34 26 34H24M24 22H26C26.5304 22 27.0391 22.2107 27.4142 22.5858C27.7893 22.9609 28 23.4696 28 24V25M24 22V18M24 34H22C21.4696 34 20.9609 33.7893 20.5858 33.4142C20.2107 33.0391 20 32.5304 20 32V31M24 34V38M47 12.5V14H1V12.5C11 9 17 6 23.5 1H24.5C31 6 37 9 47 12.5Z" stroke="black" stroke-width="2"/>
</g>
<defs>
<clipPath id="clip0_23_331">
<rect width="48" height="48" fill="white"/>
</clipPath>
</defs>
</svg>
